<svg width="17" height="20" viewBox="0 0 17 20" fill="none" xmlns="http://www.w3.org/2000/svg">
<path d="M16.4933 15.5861C16.1908 16.2848 15.8328 16.928 15.418 17.5194C14.8526 18.3255 14.3897 18.8835 14.0329 19.1934C13.4798 19.702 12.8872 19.9625 12.2527 19.9773C11.7972 19.9773 11.2478 19.8477 10.6083 19.5847C9.96672 19.323 9.37711 19.1934 8.83799 19.1934C8.27258 19.1934 7.66618 19.323 7.01755 19.5847C6.36794 19.8477 5.84463 19.9847 5.44452 19.9983C4.83602 20.0242 4.22949 19.7563 3.62408 19.1934C3.23767 18.8563 2.75436 18.2786 2.17536 17.4601C1.55415 16.586 1.04342 15.5725 0.643313 14.417C0.214808 13.1689 0 11.9603 0 10.7902C0 9.44984 0.28962 8.29383 0.869725 7.32509C1.32564 6.54697 1.93216 5.93316 2.69127 5.48255C3.45038 5.03195 4.2706 4.80233 5.15391 4.78764C5.63723 4.78764 6.27103 4.93714 7.05866 5.23096C7.84407 5.52576 8.34838 5.67526 8.56948 5.67526C8.73478 5.67526 9.29501 5.50045 10.2447 5.15195C11.1429 4.82875 11.9009 4.69492 12.5218 4.74764C14.2045 4.88344 15.4686 5.54675 16.3094 6.74177C14.8045 7.6536 14.06 8.93072 14.0749 10.5691C14.0884 11.8452 14.5514 12.9071 15.4612 13.7503C15.8736 14.1417 16.334 14.4441 16.8464 14.6589C16.7353 14.9812 16.618 15.2898 16.4933 15.5861V15.5861ZM12.6342 0.400114C12.6342 1.40034 12.2687 2.33425 11.5404 3.19867C10.6614 4.22629 9.59821 4.8201 8.44529 4.7264C8.43059 4.60641 8.42208 4.48011 8.42208 4.3474C8.42208 3.38718 8.84009 2.35956 9.58241 1.51934C9.95301 1.09392 10.4244 0.74019 10.9959 0.458013C11.5663 0.180046 12.1058 0.0263242 12.6132 0C12.628 0.133715 12.6342 0.267438 12.6342 0.400101V0.400114Z" fill="black"/>
</svg>
